<svg width="1212" height="352" xmlns="http://www.w3.org/2000/svg" xmlns:xlink="http://www.w3.org/1999/xlink" overflow="hidden"><defs><clipPath id="clip0"><rect x="35" y="108" width="1212" height="352"/></clipPath><clipPath id="clip1"><rect x="1116" y="29" width="128" height="202"/></clipPath><clipPath id="clip2"><rect x="36" y="93" width="241" height="158"/></clipPath><clipPath id="clip3"><rect x="36" y="147" width="241" height="158"/></clipPath><clipPath id="clip4"><rect x="36" y="192" width="241" height="158"/></clipPath><clipPath id="clip5"><rect x="36" y="169" width="241" height="315"/></clipPath><clipPath id="clip6"><rect x="36" y="169" width="241" height="315"/></clipPath><clipPath id="clip7"><rect x="36" y="291" width="241" height="158"/></clipPath><clipPath id="clip8"><rect x="36" y="336" width="241" height="158"/></clipPath><clipPath id="clip9"><rect x="275" y="269" width="174" height="314"/></clipPath></defs><g clip-path="url(#clip0)" transform="translate(-35 -108)"><path d="M36.5161 110.902 276 110.902 276 155.629 36.5161 155.629Z" fill="#00B050" fill-rule="evenodd"/><path d="M276 110.902 448.5 110.902 448.5 155.629 276 155.629Z" fill="#009FE3" fill-rule="evenodd"/><path d="M448.5 110.902 618 110.902 618 155.629 448.5 155.629Z" fill="#009FE3" fill-rule="evenodd"/><path d="M618 110.902 783.75 110.902 783.75 155.629 618 155.629Z" fill="#009FE3" fill-rule="evenodd"/><path d="M783.75 110.902 954.75 110.902 954.75 155.629 783.75 155.629Z" fill="#009FE3" fill-rule="evenodd"/><path d="M954.75 110.902 1116.39 110.902 1116.39 155.629 954.75 155.629Z" fill="#009FE3" fill-rule="evenodd"/><path d="M1116.39 110.902 1243.48 110.902 1243.48 155.629 1116.39 155.629Z" fill="#009FE3" fill-rule="evenodd"/><path d="M36.5161 155.629 276 155.629 276 210.029 36.5161 210.029Z" fill="#00B050" fill-rule="evenodd"/><path d="M276 155.629 448.5 155.629 448.5 210.029 276 210.029Z" fill="#FF7D41" fill-rule="evenodd"/><path d="M448.5 155.629 618 155.629 618 210.029 448.5 210.029Z" fill="#CBDFF4" fill-rule="evenodd"/><path d="M618 155.629 783.75 155.629 783.75 210.029 618 210.029Z" fill="#CBDFF4" fill-rule="evenodd"/><path d="M783.75 155.629 954.75 155.629 954.75 210.029 783.75 210.029Z" fill="#CBDFF4" fill-rule="evenodd"/><path d="M954.75 155.629 1116.39 155.629 1116.39 210.029 954.75 210.029Z" fill="#CBDFF4" fill-rule="evenodd"/><path d="M1116.39 155.629 1243.48 155.629 1243.48 453.011 1116.39 453.011Z" fill="#FF7D41" fill-rule="evenodd"/><path d="M36.5161 210.029 276 210.029 276 254.757 36.5161 254.757Z" fill="#00B050" fill-rule="evenodd"/><path d="M276 210.029 448.5 210.029 448.5 254.757 276 254.757Z" fill="#FF7D41" fill-rule="evenodd"/><path d="M448.5 210.029 618 210.029 618 254.757 448.5 254.757Z" fill="#E7F0FA" fill-rule="evenodd"/><path d="M618 210.029 783.75 210.029 783.75 254.757 618 254.757Z" fill="#E7F0FA" fill-rule="evenodd"/><path d="M783.75 210.029 954.75 210.029 954.75 254.757 783.75 254.757Z" fill="#E7F0FA" fill-rule="evenodd"/><path d="M954.75 210.029 1116.39 210.029 1116.39 254.757 954.75 254.757Z" fill="#E7F0FA" fill-rule="evenodd"/><path d="M36.5161 254.757 276 254.757 276 299.484 36.5161 299.484Z" fill="#00B050" fill-rule="evenodd"/><path d="M276 254.757 448.5 254.757 448.5 299.484 276 299.484Z" fill="#FF7D41" fill-rule="evenodd"/><path d="M448.5 254.757 618 254.757 618 299.484 448.5 299.484Z" fill="#CBDFF4" fill-rule="evenodd"/><path d="M618 254.757 783.75 254.757 783.75 299.484 618 299.484Z" fill="#CBDFF4" fill-rule="evenodd"/><path d="M783.75 254.757 954.75 254.757 954.75 299.484 783.75 299.484Z" fill="#CBDFF4" fill-rule="evenodd"/><path d="M954.75 254.757 1116.39 254.757 1116.39 299.484 954.75 299.484Z" fill="#CBDFF4" fill-rule="evenodd"/><path d="M36.5161 299.484 276 299.484 276 353.884 36.5161 353.884Z" fill="#00B050" fill-rule="evenodd"/><path d="M276 299.484 448.5 299.484 448.5 353.884 276 353.884Z" fill="#FF7D41" fill-rule="evenodd"/><path d="M448.5 299.484 618 299.484 618 353.884 448.5 353.884Z" fill="#E7F0FA" fill-rule="evenodd"/><path d="M618 299.484 783.75 299.484 783.75 353.884 618 353.884Z" fill="#E7F0FA" fill-rule="evenodd"/><path d="M783.75 299.484 954.75 299.484 954.75 353.884 783.75 353.884Z" fill="#E7F0FA" fill-rule="evenodd"/><path d="M954.75 299.484 1116.39 299.484 1116.39 353.884 954.75 353.884Z" fill="#E7F0FA" fill-rule="evenodd"/><path d="M36.5161 353.884 276 353.884 276 398.611 36.5161 398.611Z" fill="#00B050" fill-rule="evenodd"/><path d="M276 353.884 448.5 353.884 448.5 398.611 276 398.611Z" fill="#FF7D41" fill-rule="evenodd"/><path d="M448.5 353.884 618 353.884 618 398.611 448.5 398.611Z" fill="#CBDFF4" fill-rule="evenodd"/><path d="M618 353.884 783.75 353.884 783.75 398.611 618 398.611Z" fill="#CBDFF4" fill-rule="evenodd"/><path d="M783.75 353.884 954.75 353.884 954.75 398.611 783.75 398.611Z" fill="#CBDFF4" fill-rule="evenodd"/><path d="M954.75 353.884 1116.39 353.884 1116.39 398.611 954.75 398.611Z" fill="#CBDFF4" fill-rule="evenodd"/><path d="M36.5161 398.611 276 398.611 276 453.011 36.5161 453.011Z" fill="#00B050" fill-rule="evenodd"/><path d="M276 398.611 448.5 398.611 448.5 453.011 276 453.011Z" fill="#FF7D41" fill-rule="evenodd"/><path d="M448.5 398.611 1116.39 398.611 1116.39 453.011 448.5 453.011Z" fill="#E7F0FA" fill-rule="evenodd"/><path d="M276 110.236 276 453.677" stroke="#FFFFFF" stroke-width="1.33333" stroke-linejoin="round" stroke-miterlimit="10" fill="none" fill-rule="evenodd"/><path d="M448.5 110.236 448.5 453.677" stroke="#FFFFFF" stroke-width="1.33333" stroke-linejoin="round" stroke-miterlimit="10" fill="none" fill-rule="evenodd"/><path d="M618 110.236 618 399.277" stroke="#FFFFFF" stroke-width="1.33333" stroke-linejoin="round" stroke-miterlimit="10" fill="none" fill-rule="evenodd"/><path d="M783.75 110.236 783.75 399.277" stroke="#FFFFFF" stroke-width="1.33333" stroke-linejoin="round" stroke-miterlimit="10" fill="none" fill-rule="evenodd"/><path d="M954.75 110.236 954.75 399.277" stroke="#FFFFFF" stroke-width="1.33333" stroke-linejoin="round" stroke-miterlimit="10" fill="none" fill-rule="evenodd"/><path d="M1116.39 110.236 1116.39 453.677" stroke="#FFFFFF" stroke-width="1.33333" stroke-linejoin="round" stroke-miterlimit="10" fill="none" fill-rule="evenodd"/><path d="M35.8494 155.629 1244.15 155.629" stroke="#FFFFFF" stroke-width="4" stroke-linejoin="round" stroke-miterlimit="10" fill="none" fill-rule="evenodd"/><path d="M35.8494 210.029 1117.05 210.029" stroke="#FFFFFF" stroke-width="1.33333" stroke-linejoin="round" stroke-miterlimit="10" fill="none" fill-rule="evenodd"/><path d="M35.8494 254.757 1117.05 254.757" stroke="#FFFFFF" stroke-width="1.33333" stroke-linejoin="round" stroke-miterlimit="10" fill="none" fill-rule="evenodd"/><path d="M35.8494 299.484 1117.05 299.484" stroke="#FFFFFF" stroke-width="1.33333" stroke-linejoin="round" stroke-miterlimit="10" fill="none" fill-rule="evenodd"/><path d="M35.8494 353.884 1117.05 353.884" stroke="#FFFFFF" stroke-width="1.33333" stroke-linejoin="round" stroke-miterlimit="10" fill="none" fill-rule="evenodd"/><path d="M35.8494 398.611 1117.05 398.611" stroke="#FFFFFF" stroke-width="1.33333" stroke-linejoin="round" stroke-miterlimit="10" fill="none" fill-rule="evenodd"/><path d="M36.5161 110.236 36.5161 453.677" stroke="#FFFFFF" stroke-width="1.33333" stroke-linejoin="round" stroke-miterlimit="10" fill="none" fill-rule="evenodd"/><path d="M1243.48 110.236 1243.48 453.677" stroke="#FFFFFF" stroke-width="1.33333" stroke-linejoin="round" stroke-miterlimit="10" fill="none" fill-rule="evenodd"/><path d="M35.8494 110.902 1244.15 110.902" stroke="#FFFFFF" stroke-width="1.33333" stroke-linejoin="round" stroke-miterlimit="10" fill="none" fill-rule="evenodd"/><path d="M35.8494 453.011 1244.15 453.011" stroke="#FFFFFF" stroke-width="1.33333" stroke-linejoin="round" stroke-miterlimit="10" fill="none" fill-rule="evenodd"/><text fill="#FFFFFF" font-family="Verdana,Verdana_MSFontService,sans-serif" font-weight="700" font-size="24" transform="translate(71.6747 140)">Subscription<tspan x="260.242" y="0">Trial</tspan><tspan x="443.909" y="0">XS</tspan><tspan x="620.7" y="0">S</tspan><tspan x="786.242" y="0">M</tspan><tspan x="956.227" y="0">L</tspan></text><g clip-path="url(#clip1)"><text fill="#FFFFFF" font-family="Verdana,Verdana_MSFontService,sans-serif" font-weight="700" font-size="24" transform="translate(1129.19 140)">Custom</text></g><g clip-path="url(#clip2)"><text fill="#FFFFFF" font-family="Verdana,Verdana_MSFontService,sans-serif" font-weight="400" font-size="19" transform="translate(46.1161 179)">Intended use</text></g><text fill="#FFFFFF" font-family="Verdana,Verdana_MSFontService,sans-serif" font-weight="400" font-size="19" transform="translate(339.81 179)">PoCs<tspan fill="#989898" x="147.19" y="0">1 building</tspan><tspan fill="#989898" x="299.815" y="0">1</tspan><tspan fill="#989898" x="311.648" y="0">-</tspan><tspan fill="#989898" x="320.148" y="0">2 buildings</tspan><tspan fill="#989898" x="468.19" y="0">2</tspan><tspan fill="#989898" x="480.023" y="0">-</tspan><tspan fill="#989898" x="488.523" y="0">4 buildings</tspan><tspan fill="#989898" x="473.19" y="22">Max. 2 sites</tspan><tspan fill="#989898" x="634.505" y="0">4</tspan><tspan fill="#989898" x="646.339" y="0">-</tspan><tspan fill="#989898" x="654.839" y="0">8 buildings</tspan><tspan fill="#989898" x="634.425" y="22">Multiple </tspan><tspan fill="#989898" x="714.092" y="22">sites</tspan><tspan x="793.875" y="112">Individual</tspan><tspan x="802.122" y="134">contract</tspan></text><g clip-path="url(#clip3)"><text fill="#FFFFFF" font-family="Verdana,Verdana_MSFontService,sans-serif" font-weight="400" font-size="19" transform="translate(46.1161 234)">Included Sites</text></g><text fill="#FFFFFF" font-family="Verdana,Verdana_MSFontService,sans-serif" font-weight="400" font-size="19" transform="translate(356.333 234)">1<tspan fill="#989898" x="171" y="0">1</tspan><tspan fill="#989898" x="338.625" y="0">1</tspan><tspan fill="#989898" x="507" y="0">2</tspan><tspan fill="#989898" x="673.318" y="0">4</tspan></text><g clip-path="url(#clip4)"><text fill="#FFFFFF" font-family="Verdana,Verdana_MSFontService,sans-serif" font-weight="700" font-size="19" transform="translate(46.1161 279)">RTLS</text></g><text fill="#FFFFFF" font-family="Verdana,Verdana_MSFontService,sans-serif" font-weight="400" font-size="19" transform="translate(105.116 279)">Zones<tspan x="251.217" y="0">1</tspan><tspan fill="#989898" x="422.217" y="0">1</tspan><tspan fill="#989898" x="589.842" y="0">2</tspan><tspan fill="#989898" x="758.217" y="0">4</tspan><tspan fill="#989898" x="924.536" y="0">8</tspan></text><g clip-path="url(#clip5)"><text fill="#FFFFFF" font-family="Verdana,Verdana_MSFontService,sans-serif" font-weight="700" font-size="19" transform="translate(46.1161 323)">Complementary</text></g><g clip-path="url(#clip6)"><text fill="#FFFFFF" font-family="Verdana,Verdana_MSFontService,sans-serif" font-weight="400" font-size="19" transform="translate(46.1161 345)">Zones</text></g><text fill="#FFFFFF" font-family="Verdana,Verdana_MSFontService,sans-serif" font-weight="400" font-size="19" transform="translate(356.333 323)">1<tspan fill="#989898" x="171" y="0">2</tspan><tspan fill="#989898" x="338.625" y="0">4</tspan><tspan fill="#989898" x="507" y="0">8</tspan><tspan fill="#989898" x="667.402" y="0">16</tspan></text><g clip-path="url(#clip7)"><text fill="#FFFFFF" font-family="Verdana,Verdana_MSFontService,sans-serif" font-weight="700" font-size="19" transform="translate(46.1161 378)">Mobile</text></g><text fill="#FFFFFF" font-family="Verdana,Verdana_MSFontService,sans-serif" font-weight="700" font-size="19" transform="translate(114.616 378)">-Zone<tspan font-weight="400" x="66.8333" y="0">Support</tspan><tspan font-weight="400" x="232.061" y="0">Yes</tspan><tspan fill="#989898" font-weight="400" x="405.967" y="0">No</tspan><tspan fill="#989898" font-weight="400" x="573.592" y="0">No</tspan><tspan fill="#989898" font-weight="400" x="739.061" y="0">Yes</tspan><tspan fill="#989898" font-weight="400" x="905.379" y="0">Yes</tspan></text><g clip-path="url(#clip8)"><text fill="#FFFFFF" font-family="Verdana,Verdana_MSFontService,sans-serif" font-weight="400" font-size="19" transform="translate(46.1161 422)">Price p.m.</text></g><text fill="#FFFFFF" font-family="Verdana,Verdana_MSFontService,sans-serif" font-weight="400" font-size="19" transform="translate(290.833 422)">0 EUR <tspan x="63.3333" y="0">for</tspan></text><g clip-path="url(#clip9)"><text fill="#FFFFFF" font-family="Verdana,Verdana_MSFontService,sans-serif" font-weight="400" font-size="19" transform="translate(386.5 422)">max. </text></g><text fill="#FFFFFF" font-family="Verdana,Verdana_MSFontService,sans-serif" font-weight="400" font-size="19" transform="translate(322.833 444)">3 <tspan x="18.3333" y="0">month</tspan><tspan fill="#989898" font-weight="700" x="149.444" y="-22">Get in contact with</tspan><tspan fill="#989898" font-weight="700" x="354.61" y="-22">partner management for actual pricing!</tspan></text></g></svg>