<svg viewBox="0 0 309.32 120.63" version="1.1" xmlns:xlink="http://www.w3.org/1999/xlink" xmlns="http://www.w3.org/2000/svg" xmlns:svg="http://www.w3.org/2000/svg">
        <defs id="defs27">
            <style id="style2">.cls-1{fill:url(#Unbenannter_Verlauf_7);}.cls-2{fill:url(#Unbenannter_Verlauf_7-2);}.cls-3{fill:url(#Unbenannter_Verlauf_7-3);}.cls-4{fill:url(#Unbenannter_Verlauf_7-4);}.cls-5{fill:url(#Unbenannter_Verlauf_7-5);}.cls-6{fill:url(#Unbenannter_Verlauf_7-6);}.cls-7{fill:url(#Unbenannter_Verlauf_7-7);}.cls-8{fill:url(#Unbenannter_Verlauf_7-8);}.cls-9{fill:url(#Unbenannter_Verlauf_7-9);}.cls-10{fill:url(#Unbenannter_Verlauf_7-10);}.cls-11{fill:url(#Unbenannter_Verlauf_7-11);}.cls-12{fill:#095e87;}</style>
            <linearGradient id="Unbenannter_Verlauf_7" x1="1.37" y1="72.87" x2="65.66" y2="-22.3" gradientUnits="userSpaceOnUse">
            <stop offset="0" stop-color="#009fe3" id="stop4"></stop>
            <stop offset="0.22" stop-color="#009cdf" id="stop6"></stop>
            <stop offset="0.43" stop-color="#0194d4" id="stop8"></stop>
            <stop offset="0.62" stop-color="#0387c1" id="stop10"></stop>
            <stop offset="0.82" stop-color="#0675a7" id="stop12"></stop>
            <stop offset="1" stop-color="#095e87" id="stop14"></stop>
            </linearGradient>
            <linearGradient id="Unbenannter_Verlauf_7-2" x1="34.71" y1="95.39" x2="99" y2="0.22" xlink:href="#Unbenannter_Verlauf_7"></linearGradient>
            <linearGradient id="Unbenannter_Verlauf_7-3" x1="2.68" y1="73.75" x2="66.97" y2="-21.42" xlink:href="#Unbenannter_Verlauf_7"></linearGradient>
            <linearGradient id="Unbenannter_Verlauf_7-4" x1="3.99" y1="74.64" x2="68.28" y2="-20.53" xlink:href="#Unbenannter_Verlauf_7"></linearGradient>
            <linearGradient id="Unbenannter_Verlauf_7-5" x1="37.33" y1="97.16" x2="101.62" y2="1.99" xlink:href="#Unbenannter_Verlauf_7"></linearGradient>
            <linearGradient id="Unbenannter_Verlauf_7-6" x1="35.74" y1="96.09" x2="100.04" y2="0.92" xlink:href="#Unbenannter_Verlauf_7"></linearGradient>
            <linearGradient id="Unbenannter_Verlauf_7-7" x1="28.01" y1="90.87" x2="92.31" y2="-4.3" xlink:href="#Unbenannter_Verlauf_7"></linearGradient>
            <linearGradient id="Unbenannter_Verlauf_7-8" x1="20" y1="85.46" x2="84.3" y2="-9.71" xlink:href="#Unbenannter_Verlauf_7"></linearGradient>
            <linearGradient id="Unbenannter_Verlauf_7-9" x1="53.34" y1="107.98" x2="117.64" y2="12.81" xlink:href="#Unbenannter_Verlauf_7"></linearGradient>
            <linearGradient id="Unbenannter_Verlauf_7-10" x1="69.36" y1="118.8" x2="133.65" y2="23.63" xlink:href="#Unbenannter_Verlauf_7"></linearGradient>
            <linearGradient id="Unbenannter_Verlauf_7-11" x1="70.67" y1="119.69" x2="134.96" y2="24.51" xlink:href="#Unbenannter_Verlauf_7"></linearGradient>
            <filter style="color-interpolation-filters:sRGB;" id="filter860" x="0" y="0" width="1" height="1">
            <feColorMatrix values="10 10 10 10 0 10 10 10 10 0 10 10 10 10 0 0 0 0 1 0 " id="feColorMatrix858"></feColorMatrix>
            </filter>
            <filter style="color-interpolation-filters:sRGB;"  id="filter864" x="0" y="0" width="1" height="1">
            <feColorMatrix values="10 10 10 10 0 10 10 10 10 0 10 10 10 10 0 0 0 0 1 0 " id="feColorMatrix862"></feColorMatrix>
            </filter>
            <filter style="color-interpolation-filters:sRGB;"  id="filter868" x="0" y="0" width="1" height="1">
            <feColorMatrix values="10 10 10 10 0 10 10 10 10 0 10 10 10 10 0 0 0 0 1 0 " id="feColorMatrix866"></feColorMatrix>
            </filter>
            <filter style="color-interpolation-filters:sRGB;"  id="filter872" x="0" y="0" width="1" height="1">
            <feColorMatrix values="10 10 10 10 0 10 10 10 10 0 10 10 10 10 0 0 0 0 1 0 " id="feColorMatrix870"></feColorMatrix>
            </filter>
            <filter style="color-interpolation-filters:sRGB;"  id="filter876" x="0" y="0" width="1" height="1">
            <feColorMatrix values="10 10 10 10 0 10 10 10 10 0 10 10 10 10 0 0 0 0 1 0 " id="feColorMatrix874"></feColorMatrix>
            </filter>
            <filter style="color-interpolation-filters:sRGB;"  id="filter880" x="0" y="0" width="1" height="1">
            <feColorMatrix values="10 10 10 10 0 10 10 10 10 0 10 10 10 10 0 0 0 0 1 0 " id="feColorMatrix878"></feColorMatrix>
            </filter>
            <filter style="color-interpolation-filters:sRGB;"  id="filter884" x="0" y="0" width="1" height="1">
            <feColorMatrix values="10 10 10 10 0 10 10 10 10 0 10 10 10 10 0 0 0 0 1 0 " id="feColorMatrix882"></feColorMatrix>
            </filter>
            <filter style="color-interpolation-filters:sRGB;"  id="filter888" x="0" y="0" width="1" height="1">
            <feColorMatrix values="10 10 10 10 0 10 10 10 10 0 10 10 10 10 0 0 0 0 1 0 " id="feColorMatrix886"></feColorMatrix>
            </filter>
            <filter style="color-interpolation-filters:sRGB;"  id="filter892" x="0" y="0" width="1" height="1">
            <feColorMatrix values="10 10 10 10 0 10 10 10 10 0 10 10 10 10 0 0 0 0 1 0 " id="feColorMatrix890"></feColorMatrix>
            </filter>
            <filter style="color-interpolation-filters:sRGB;"  id="filter896" x="0" y="0" width="1" height="1">
            <feColorMatrix values="10 10 10 10 0 10 10 10 10 0 10 10 10 10 0 0 0 0 1 0 " id="feColorMatrix894"></feColorMatrix>
            </filter>
            <filter style="color-interpolation-filters:sRGB;"  id="filter900" x="0" y="0" width="1" height="1">
            <feColorMatrix values="10 10 10 10 0 10 10 10 10 0 10 10 10 10 0 0 0 0 1 0 " id="feColorMatrix898"></feColorMatrix>
            </filter>
            <filter style="color-interpolation-filters:sRGB;"  id="filter904" x="0" y="0" width="1" height="1">
            <feColorMatrix values="10 10 10 10 0 10 10 10 10 0 10 10 10 10 0 0 0 0 1 0 " id="feColorMatrix902"></feColorMatrix>
            </filter>
            <filter style="color-interpolation-filters:sRGB;"  id="filter908" x="0" y="0" width="1" height="1">
            <feColorMatrix values="10 10 10 10 0 10 10 10 10 0 10 10 10 10 0 0 0 0 1 0 " id="feColorMatrix906"></feColorMatrix>
            </filter>
            <filter style="color-interpolation-filters:sRGB;"  id="filter912" x="0" y="0" width="1" height="1">
            <feColorMatrix values="10 10 10 10 0 10 10 10 10 0 10 10 10 10 0 0 0 0 1 0 " id="feColorMatrix910"></feColorMatrix>
            </filter>
            <filter style="color-interpolation-filters:sRGB;"  id="filter916" x="0" y="0" width="1" height="1">
            <feColorMatrix values="10 10 10 10 0 10 10 10 10 0 10 10 10 10 0 0 0 0 1 0 " id="feColorMatrix914"></feColorMatrix>
            </filter>
            <filter style="color-interpolation-filters:sRGB;"  id="filter920" x="0" y="0" width="1" height="1">
            <feColorMatrix values="10 10 10 10 0 10 10 10 10 0 10 10 10 10 0 0 0 0 1 0 " id="feColorMatrix918"></feColorMatrix>
            </filter>
            <filter style="color-interpolation-filters:sRGB;"  id="filter924" x="0" y="0" width="1" height="1">
            <feColorMatrix values="10 10 10 10 0 10 10 10 10 0 10 10 10 10 0 0 0 0 1 0 " id="feColorMatrix922"></feColorMatrix>
            </filter>
            <filter style="color-interpolation-filters:sRGB;"  id="filter928" x="0" y="0" width="1" height="1">
            <feColorMatrix values="10 10 10 10 0 10 10 10 10 0 10 10 10 10 0 0 0 0 1 0 " id="feColorMatrix926"></feColorMatrix>
            </filter>
            <filter style="color-interpolation-filters:sRGB;"  id="filter932" x="0" y="0" width="1" height="1">
            <feColorMatrix values="10 10 10 10 0 10 10 10 10 0 10 10 10 10 0 0 0 0 1 0 " id="feColorMatrix930"></feColorMatrix>
            </filter>
        </defs>
        <path class="cls-1" d="M44.73,9a4.88,4.88,0,1,0-1.57-6.71A4.88,4.88,0,0,0,44.73,9Z" id="path29"    style="filter:url(#filter860)"></path>
        <path class="cls-2" d="M79,30.24a4.88,4.88,0,1,0-1.58-6.72A4.88,4.88,0,0,0,79,30.24Z" id="path31"    style="filter:url(#filter864)"></path>
        <path class="cls-3" d="M30.24,41.67a4.88,4.88,0,1,0-6.72,1.58A4.88,4.88,0,0,0,30.24,41.67Z" id="path33"    style="filter:url(#filter868)"></path>
        <path class="cls-4" d="M7.45,69.18A4.88,4.88,0,1,0,9,75.89,4.88,4.88,0,0,0,7.45,69.18Z" id="path35"    style="filter:url(#filter872)"></path>
        <path class="cls-5" d="M41.67,90.39a4.88,4.88,0,1,0,1.58,6.72A4.87,4.87,0,0,0,41.67,90.39Z" id="path37"    style="filter:url(#filter876)"></path>
        <path class="cls-6" d="M94.09,57.57a7.12,7.12,0,0,0-2.3-9.82,7.05,7.05,0,0,0-5.63-.81h0s-2,.65-5.11-1.25a8.52,8.52,0,0,1-3.76-4.27h0a6.58,6.58,0,0,0-7.51-4.73v0s-2.21.66-5.58-1.44A9.68,9.68,0,0,1,60,30.61h0a6.44,6.44,0,0,0-2.77-3.55A6.5,6.5,0,1,0,54.8,39h0a9.68,9.68,0,0,1,6,1.71c3.37,2.09,3.77,4.35,3.77,4.35h0a6.59,6.59,0,0,0,7.58,4.62h0a8.6,8.6,0,0,1,5.49,1.48,7.42,7.42,0,0,1,3.43,4.21.74.74,0,0,0,0,.14.45.45,0,0,1,0,.08h0a9.06,9.06,0,0,1-1.37,6.07A6.37,6.37,0,0,1,76,64.46l-.1,0h-.05a6.62,6.62,0,1,0,8.12,5.29h0s-.59-2,1.33-5.14a9.19,9.19,0,0,1,4.38-3.9A7.09,7.09,0,0,0,94.09,57.57Z" id="path39"    style="filter:url(#filter880)"></path>
        <path class="cls-7" d="M66.3,64A7,7,0,0,0,64,54.33a7,7,0,0,0-5.61-.79h0c-.47.11-2.38.42-5.08-1.26A8.7,8.7,0,0,1,49.46,48h0a6.49,6.49,0,1,0-5,8.14h0A8.77,8.77,0,0,1,50,57.62c3.11,1.93,3.42,4.1,3.42,4.1v0c0,.16.07.32.11.48h0A8.63,8.63,0,0,1,52,67.74a7.4,7.4,0,0,1-3.72,3.34,6.5,6.5,0,1,0,6.93,9.77,6.43,6.43,0,0,0,.86-4.61h0l0,0a2.56,2.56,0,0,0,0-.27,7.34,7.34,0,0,1,1.33-4.87,8.75,8.75,0,0,1,4.32-3.83A7,7,0,0,0,66.3,64Z" id="path41"    style="filter:url(#filter884)"></path>
        <path class="cls-8" d="M38.12,70.24a6.5,6.5,0,1,0-8.95,2.11A6.5,6.5,0,0,0,38.12,70.24Z" id="path43"    style="filter:url(#filter888)"></path>
        <path class="cls-9" d="M72.35,91.46a6.5,6.5,0,1,0-9,2.1A6.5,6.5,0,0,0,72.35,91.46Z" id="path45"    style="filter:url(#filter892)"></path>
        <path class="cls-10" d="M97.11,77.38a4.88,4.88,0,1,0,1.57,6.72A4.88,4.88,0,0,0,97.11,77.38Z" id="path47"    style="filter:url(#filter896)"></path>
        <path class="cls-11" d="M75.89,111.61a4.87,4.87,0,1,0,1.58,6.71A4.87,4.87,0,0,0,75.89,111.61Z" id="path49"    style="filter:url(#filter900)"></path>
        <path class="cls-12" d="M127.85,32.6V42.71h-10c-3.61,0-7.24,2.29-7.24,7.21v7c0,3.57,2.31,7.18,7.27,7.18h7c3.61-.06,7.26-2.31,7.26-7.21V32.6Zm0,24.32c0,1.94-1,2.94-3,3h-7a2.68,2.68,0,0,1-3-3v-7c0-1.94,1-2.94,3-3h9.95Z" id="path51"    style="filter:url(#filter904)"></path>
        <path class="cls-12" d="M160.52,55.79V50c-.05-3.58-2.32-7.18-7.28-7.18h-8c-3.6.05-7.24,2.3-7.24,7.21v6.93c.06,3.57,2.32,7.19,7.28,7.19h15.24V59.89H145.28a2.69,2.69,0,0,1-3-3V55.79ZM142.27,50c0-1.94,1-2.94,3-3h8a2.68,2.68,0,0,1,3,3v1.12h-14Z" id="path53"    style="filter:url(#filter908)"></path>
        <path class="cls-12" d="M198.56,80.29V64.22h10c3.61,0,7.24-2.29,7.24-7.21V50c0-3.57-2.31-7.18-7.27-7.18h-7c-3.61.06-7.26,2.31-7.26,7.21V80.29Zm0-30.28c0-1.94,1-2.94,3-3h7a2.68,2.68,0,0,1,3,3v7c0,1.94-1,2.94-3,3h-9.95Z" id="path55"    style="filter:url(#filter912)"></path>
        <path class="cls-12" d="M188.41,55.79V50c0-3.58-2.32-7.18-7.27-7.18h-8c-3.61.05-7.25,2.3-7.25,7.21v6.93c.06,3.57,2.32,7.19,7.28,7.19h15.24V59.89H173.17a2.68,2.68,0,0,1-3-3V55.79ZM170.17,50c0-1.94,1-2.94,3-3h8a2.66,2.66,0,0,1,3,3v1.12h-14Z" id="path57"    style="filter:url(#filter916)"></path>
        <path class="cls-12" d="m 235.1,43.25 h -10 V 33.13 h -4.28 v 30.95 h 4.28 v -16.6 h 10 c 2,0 3,1 3,3 v 5 0 8.65 0 0 h 0.1 4.17 V 50.45 c -0.03,-4.91 -3.67,-7.15 -7.27,-7.2 z" id="path59"    style="filter:url(#filter920)"></path>
        <path class="cls-12" d="m 286.08,42.71 h -10 V 32.6 h -4.27 v 24.32 c 0,4.9 3.64,7.15 7.25,7.21 h 7 c 5,0 7.22,-3.61 7.27,-7.18 v -7 c -0.01,-4.95 -3.65,-7.19 -7.25,-7.24 z m 3,14.21 a 2.66,2.66 0 0 1 -3,3 h -7 c -2,0 -3,-1 -3,-3 V 47 H 286 c 2,0 3,1 3,3 z" id="path61"    style="filter:url(#filter924)"></path>
        <path class="cls-12" d="m 264.05,43.34 v 0 13.58 c 0,1.94 -1,2.94 -3,3 h -8 a 2.68,2.68 0 0 1 -3,-3 V 43.34 h -4.27 V 57 c 0,3.57 2.31,7.18 7.27,7.18 h 8 c 3.6,0 7.24,-2.3 7.24,-7.21 V 43.34 Z" id="path63"    style="filter:url(#filter928)"></path>
        <text xml:space="preserve" style="font-style:normal;font-weight:normal;font-size:10.6667px;line-height:1.25;font-family:sans-serif;fill:#095e87;fill-opacity:1;stroke:none;filter:url(#filter932)" x="294.51544" y="40.055283" id="text2530"   ><tspan id="tspan2528" x="294.51544" y="40.055283">®</tspan></text>
        </svg>